<svg width="1600" height="900" viewBox="0 0 1600 900" fill="none" xmlns="http://www.w3.org/2000/svg">
  <rect width="1600" height="900" rx="32" fill="#F4ECE2"/>
  <circle cx="1310" cy="170" r="220" fill="#EACCB1"/>
  <circle cx="260" cy="760" r="240" fill="#E1B18A"/>
  <rect x="120" y="110" width="860" height="560" rx="36" fill="#FFF8F1" stroke="#D8C5B4"/>
  <rect x="180" y="182" width="330" height="22" rx="11" fill="#C96D37"/>
  <rect x="180" y="232" width="520" height="28" rx="14" fill="#201C18"/>
  <rect x="180" y="278" width="460" height="28" rx="14" fill="#201C18"/>
  <rect x="180" y="338" width="260" height="18" rx="9" fill="#786A5E"/>
  <rect x="180" y="370" width="300" height="18" rx="9" fill="#786A5E"/>
  <rect x="180" y="430" width="210" height="58" rx="29" fill="#C96D37"/>
  <rect x="760" y="200" width="150" height="120" rx="24" fill="#F2E5D7"/>
  <rect x="760" y="340" width="150" height="120" rx="24" fill="#F2E5D7"/>
  <rect x="1035" y="180" width="320" height="420" rx="36" fill="#201C18"/>
  <rect x="1095" y="250" width="200" height="18" rx="9" fill="#F4ECE2"/>
  <rect x="1095" y="292" width="160" height="18" rx="9" fill="#F4ECE2"/>
  <rect x="1095" y="370" width="140" height="46" rx="23" fill="#C96D37"/>
  <text x="180" y="610" fill="#201C18" font-family="Arial, sans-serif" font-size="64" font-weight="700">СайтХаб</text>
  <text x="180" y="682" fill="#786A5E" font-family="Arial, sans-serif" font-size="34">Создание сайтов для локального бизнеса</text>
</svg>
