<svg width="1600" height="1000" viewBox="0 0 1600 1000" fill="none" xmlns="http://www.w3.org/2000/svg">
  <rect width="1600" height="1000" rx="40" fill="#161616"/>
  <circle cx="1334" cy="164" r="220" fill="#4B3A2A"/>
  <circle cx="248" cy="842" r="234" fill="#2B2B2B"/>
  <rect x="72" y="72" width="1456" height="856" rx="36" fill="#201D1A" stroke="#4D4033"/>
  <rect x="132" y="146" width="344" height="52" rx="26" fill="#B48559"/>
  <text x="176" y="179" fill="#FFF7F0" font-family="Arial, sans-serif" font-size="20" font-weight="700" letter-spacing="3">MESTO CASE</text>
  <text x="132" y="308" fill="#FFF7F0" font-family="Arial, sans-serif" font-size="86" font-weight="700">MESTO</text>
  <text x="132" y="394" fill="#FFF7F0" font-family="Arial, sans-serif" font-size="80" font-weight="700">one CTA flow</text>
  <rect x="132" y="446" width="442" height="18" rx="9" fill="#B7A596"/>
  <rect x="132" y="480" width="376" height="18" rx="9" fill="#B7A596"/>
  <rect x="132" y="552" width="272" height="62" rx="31" fill="#B48559"/>
  <text x="194" y="591" fill="#FFF7F0" font-family="Arial, sans-serif" font-size="20" font-weight="700">TELEGRAM CTA</text>
  <rect x="132" y="692" width="194" height="138" rx="28" fill="#2A2622"/>
  <rect x="346" y="692" width="194" height="138" rx="28" fill="#2A2622"/>
  <rect x="560" y="692" width="194" height="138" rx="28" fill="#2A2622"/>
  <rect x="1020" y="130" width="382" height="682" rx="36" fill="#121212"/>
  <rect x="1072" y="182" width="278" height="18" rx="9" fill="#FFF7F0"/>
  <rect x="1072" y="214" width="194" height="18" rx="9" fill="#FFF7F0"/>
  <rect x="1072" y="288" width="278" height="194" rx="28" fill="#2C241D"/>
  <rect x="1096" y="316" width="108" height="138" rx="20" fill="#B48559"/>
  <rect x="1218" y="316" width="108" height="138" rx="20" fill="#E3C6A6"/>
  <rect x="1072" y="520" width="278" height="124" rx="28" fill="#2C241D"/>
  <rect x="1098" y="548" width="226" height="18" rx="9" fill="#FFF7F0"/>
  <rect x="1098" y="580" width="180" height="18" rx="9" fill="#FFF7F0"/>
  <rect x="1072" y="724" width="278" height="42" rx="21" fill="#B48559"/>
</svg>
