<svg width="1600" height="1000" viewBox="0 0 1600 1000" fill="none" xmlns="http://www.w3.org/2000/svg">
  <rect width="1600" height="1000" rx="40" fill="#ECE7DF"/>
  <circle cx="1316" cy="176" r="222" fill="#D7C8B6"/>
  <circle cx="250" cy="840" r="236" fill="#CDB59A"/>
  <rect x="72" y="72" width="1456" height="856" rx="36" fill="#F9F5EF" stroke="#D4C6B8"/>
  <rect x="132" y="146" width="314" height="52" rx="26" fill="#2D3A32"/>
  <text x="176" y="179" fill="#F9F5EF" font-family="Arial, sans-serif" font-size="20" font-weight="700" letter-spacing="3">MBLMASTER CASE</text>
  <text x="132" y="308" fill="#201C18" font-family="Arial, sans-serif" font-size="88" font-weight="700">МБЛ Мастер</text>
  <text x="132" y="396" fill="#201C18" font-family="Arial, sans-serif" font-size="88" font-weight="700">в Иркутске</text>
  <rect x="132" y="448" width="408" height="18" rx="9" fill="#6D655E"/>
  <rect x="132" y="482" width="352" height="18" rx="9" fill="#6D655E"/>
  <rect x="132" y="552" width="258" height="62" rx="31" fill="#201C18"/>
  <text x="176" y="591" fill="#F9F5EF" font-family="Arial, sans-serif" font-size="20" font-weight="700">VIEW CASES</text>
  <rect x="132" y="694" width="194" height="138" rx="28" fill="#EEE7DE"/>
  <rect x="346" y="694" width="194" height="138" rx="28" fill="#EEE7DE"/>
  <rect x="560" y="694" width="194" height="138" rx="28" fill="#EEE7DE"/>
  <rect x="1020" y="130" width="382" height="682" rx="36" fill="#1F2521"/>
  <rect x="1072" y="182" width="278" height="18" rx="9" fill="#F9F5EF"/>
  <rect x="1072" y="214" width="208" height="18" rx="9" fill="#F9F5EF"/>
  <rect x="1072" y="286" width="278" height="170" rx="28" fill="#2E3A32"/>
  <rect x="1096" y="314" width="230" height="114" rx="22" fill="#D7C8B6"/>
  <rect x="1072" y="494" width="128" height="186" rx="24" fill="#2E3A32"/>
  <rect x="1218" y="494" width="132" height="186" rx="24" fill="#2E3A32"/>
  <rect x="1096" y="526" width="82" height="14" rx="7" fill="#F9F5EF"/>
  <rect x="1242" y="526" width="82" height="14" rx="7" fill="#F9F5EF"/>
  <rect x="1072" y="724" width="278" height="42" rx="21" fill="#75806C"/>
</svg>
