<svg width="1600" height="1000" viewBox="0 0 1600 1000" fill="none" xmlns="http://www.w3.org/2000/svg">
  <rect width="1600" height="1000" rx="40" fill="#F4E8DA"/>
  <circle cx="1320" cy="180" r="220" fill="#E8C5A5"/>
  <circle cx="260" cy="840" r="230" fill="#E0B58E"/>
  <rect x="72" y="72" width="1456" height="856" rx="36" fill="#FFF8F1" stroke="#DCC8B6"/>
  <rect x="132" y="150" width="242" height="52" rx="26" fill="#C96D37"/>
  <text x="184" y="183" fill="#FFF8F1" font-family="Arial, sans-serif" font-size="20" font-weight="700" letter-spacing="3">KITCHEN CASE</text>
  <text x="132" y="312" fill="#201C18" font-family="Arial, sans-serif" font-size="96" font-weight="700">Кухни</text>
  <text x="132" y="408" fill="#201C18" font-family="Arial, sans-serif" font-size="96" font-weight="700">на заказ</text>
  <rect x="132" y="458" width="390" height="20" rx="10" fill="#7E6C5E"/>
  <rect x="132" y="494" width="346" height="20" rx="10" fill="#7E6C5E"/>
  <rect x="132" y="566" width="232" height="62" rx="31" fill="#201C18"/>
  <text x="183" y="605" fill="#FFF8F1" font-family="Arial, sans-serif" font-size="22" font-weight="700">VIEW CONCEPT</text>
  <rect x="132" y="706" width="188" height="132" rx="26" fill="#F2E3D5"/>
  <rect x="340" y="706" width="188" height="132" rx="26" fill="#F2E3D5"/>
  <rect x="548" y="706" width="188" height="132" rx="26" fill="#F2E3D5"/>
  <rect x="1016" y="132" width="372" height="676" rx="34" fill="#201C18"/>
  <rect x="1068" y="184" width="268" height="20" rx="10" fill="#FFF8F1"/>
  <rect x="1068" y="220" width="192" height="20" rx="10" fill="#FFF8F1"/>
  <rect x="1068" y="312" width="268" height="150" rx="28" fill="#2D2722"/>
  <rect x="1088" y="338" width="228" height="98" rx="20" fill="#E6C3A2"/>
  <rect x="1068" y="500" width="120" height="168" rx="22" fill="#2D2722"/>
  <rect x="1204" y="500" width="132" height="168" rx="22" fill="#2D2722"/>
  <rect x="1088" y="528" width="80" height="16" rx="8" fill="#FFF8F1"/>
  <rect x="1228" y="528" width="80" height="16" rx="8" fill="#FFF8F1"/>
  <rect x="1068" y="716" width="268" height="40" rx="20" fill="#C96D37"/>
</svg>
